<?xml version="1.0" encoding="UTF-8" standalone="no"?>
<!-- Created with Inkscape (http://www.inkscape.org/) -->

<svg
   xmlns:dc="http://purl.org/dc/elements/1.1/"
   xmlns:cc="http://creativecommons.org/ns#"
   xmlns:rdf="http://www.w3.org/1999/02/22-rdf-syntax-ns#"
   xmlns:svg="http://www.w3.org/2000/svg"
   xmlns="http://www.w3.org/2000/svg"
   xmlns:sodipodi="http://sodipodi.sourceforge.net/DTD/sodipodi-0.dtd"
   xmlns:inkscape="http://www.inkscape.org/namespaces/inkscape"
   width="395.11111mm"
   height="155.22221mm"
   viewBox="0 0 1400 549.99997"
   id="svg2"
   version="1.1"
   inkscape:version="0.91 r13725"
   sodipodi:docname="flagofqatar.svg">
  <defs
     id="defs4" />
  <sodipodi:namedview
     id="base"
     pagecolor="#ffffff"
     bordercolor="#666666"
     borderopacity="1.0"
     inkscape:pageopacity="0.0"
     inkscape:pageshadow="2"
     inkscape:zoom="0.35"
     inkscape:cx="-324.99996"
     inkscape:cy="192.14286"
     inkscape:document-units="px"
     inkscape:current-layer="g4210"
     showgrid="false"
     fit-margin-top="0"
     fit-margin-left="0"
     fit-margin-right="0"
     fit-margin-bottom="0"
     inkscape:window-width="1916"
     inkscape:window-height="1035"
     inkscape:window-x="4"
     inkscape:window-y="1"
     inkscape:window-maximized="1" />
  <metadata
     id="metadata7">
    <rdf:RDF>
      <cc:Work
         rdf:about="">
        <dc:format>image/svg+xml</dc:format>
        <dc:type
           rdf:resource="http://purl.org/dc/dcmitype/StillImage" />
        <dc:title></dc:title>
        <cc:license
           rdf:resource="http://creativecommons.org/publicdomain/zero/1.0/" />
      </cc:Work>
      <cc:License
         rdf:about="http://creativecommons.org/publicdomain/zero/1.0/">
        <cc:permits
           rdf:resource="http://creativecommons.org/ns#Reproduction" />
        <cc:permits
           rdf:resource="http://creativecommons.org/ns#Distribution" />
        <cc:permits
           rdf:resource="http://creativecommons.org/ns#DerivativeWorks" />
      </cc:License>
    </rdf:RDF>
  </metadata>
  <g
     inkscape:label="Layer 1"
     inkscape:groupmode="layer"
     id="layer1"
     transform="translate(-205.71425,-174.5051)">
    <g
       id="g4210"
       transform="translate(551.42857,-582.85714)">
      <g
         id="g4216">
        <path
           inkscape:connector-curvature="0"
           id="path4214"
           d="m -345.71432,1032.3622 0,-274.99996 700,0 700.00002,0 0,274.99996 0,275 -700.00002,0 -700,0 0,-275 z"
           style="fill:#fdfdfd" />
        <path
           inkscape:connector-curvature="0"
           id="path4212"
           d="m 67.36901,1306.9773 c 0.22917,-0.2117 24.87939,-7.0456 54.77826,-15.1866 34.4329,-9.3755 53.67915,-15.0526 52.5,-15.4861 -1.02387,-0.3763 -25.48659,-7.1032 -54.36159,-14.9485 -28.875,-7.8454 -52.81145,-14.5409 -53.19211,-14.8791 -0.38066,-0.3381 24.07565,-7.3499 54.34735,-15.5817 36.78924,-10.0041 54.42692,-15.2166 53.19211,-15.7199 -1.01604,-0.4142 -25.47235,-7.1411 -54.34735,-14.9489 -28.875,-7.8077 -52.84088,-14.4846 -53.25751,-14.8375 -0.41663,-0.353 23.98808,-7.3659 54.23268,-15.5843 35.33853,-9.6025 54.37098,-15.2066 53.25751,-15.6817 -0.95298,-0.4065 -24.90768,-7.0512 -53.23268,-14.7659 -28.325,-7.7147 -52.35451,-14.3822 -53.39892,-14.8168 -1.31952,-0.5491 14.77534,-5.3329 52.75,-15.6787 30.05691,-8.1887 54.64519,-15.1384 54.64062,-15.4439 -0.005,-0.3055 -23.96706,-7.041 -53.25,-14.9677 -29.28293,-7.9267 -53.84873,-14.7195 -54.59065,-15.0951 -0.76304,-0.3863 3.36328,-1.9793 9.5,-3.6675 5.96692,-1.6415 30.53645,-8.3455 54.59895,-14.8977 24.0625,-6.5522 43.75,-12.1446 43.75,-12.4275 0,-0.2828 -19.6875,-5.8752 -43.75,-12.4274 -24.0625,-6.5522 -48.63203,-13.2562 -54.59895,-14.8977 -6.13672,-1.6882 -10.26304,-3.2812 -9.5,-3.6675 0.74192,-0.3756 25.30772,-7.1684 54.59065,-15.09513 29.28294,-7.92673 53.24544,-14.66218 53.25,-14.96767 0.005,-0.30549 -24.58371,-7.25526 -54.64062,-15.44394 -37.97466,-10.34578 -54.06952,-15.12959 -52.75,-15.67865 1.04441,-0.43459 25.07392,-7.10216 53.39892,-14.81684 28.325,-7.71468 52.2797,-14.35934 53.23268,-14.76591 1.11347,-0.47505 -17.91898,-6.07917 -53.25751,-15.68171 -30.2446,-8.21837 -54.64931,-15.23128 -54.23268,-15.58424 0.41663,-0.35296 24.38251,-7.02987 53.25751,-14.83757 28.875,-7.80771 53.33131,-14.53467 54.34735,-14.94882 1.23481,-0.5033 -16.40287,-5.71579 -53.19211,-15.71993 -30.2717,-8.23182 -54.72801,-15.24361 -54.34735,-15.58174 0.38066,-0.33814 24.31711,-7.0337 53.19211,-14.87904 28.875,-7.84534 53.33772,-14.57219 54.36159,-14.94856 1.17915,-0.43345 -18.0671,-6.11056 -52.5,-15.48606 -29.89887,-8.14096 -54.54909,-14.97495 -54.77826,-15.18665 -0.22916,-0.21169 221.73334,-0.3849 493.25,-0.3849 l 493.66669,0 0,274.99996 0,275 -493.66669,0 c -271.51666,0 -493.47916,-0.1732 -493.25,-0.3849 z"
           style="fill:#8a0c34" />
      </g>
    </g>
  </g>
</svg>
